PathFileType	4	(X/Y/Z)	pose2sim_tools_200-690.trc
DataRate	CameraRate	NumFrames	NumMarkers	Units	OrigDataRate	OrigDataStartFrame	OrigNumFrames
29	29	7	22	m	29	628	690
Frame#	Time	Hip			RHip			RKnee			RAnkle			RBigToe			RSmallToe			RHeel			LHip			LKnee			LAnkle			LBigToe			LSmallToe			LHeel			Neck			Head			Nose			RShoulder			RElbow			RWrist			LShoulder			LElbow			LWrist			
		X1	Y1	Z1	X2	Y2	Z2	X3	Y3	Z3	X4	Y4	Z4	X5	Y5	Z5	X6	Y6	Z6	X7	Y7	Z7	X8	Y8	Z8	X9	Y9	Z9	X10	Y10	Z10	X11	Y11	Z11	X12	Y12	Z12	X13	Y13	Z13	X14	Y14	Z14	X15	Y15	Z15	X16	Y16	Z16	X17	Y17	Z17	X18	Y18	Z18	X19	Y19	Z19	X20	Y20	Z20	X21	Y21	Z21	X22	Y22	Z22	
628	21.655172413793103	-2.336438606604124	0.46485536578889963	-0.09385826847903476	-2.353038990688588	0.47134557749447936	-0.024655921603865618	-2.2046242795272977	0.19736587193916452	-0.012075735215236237	-2.20400101058597	-0.0910073542311386	-0.02655949501062911	-2.0956716185600377	-0.15277208436176595	-0.028562859448280083	-2.1100999312433695	-0.1562520220739276	0.011149673823826265	-2.2595259197699096	-0.1466238052844587	-0.0348521889676408	-2.3524316437550183	0.4622736051074993	-0.16607838551032586	-2.386280748769114	0.1702507185234735	-0.17028010340166325	-2.49284398881005	-0.11511130323787089	-0.171093976943816	-2.373108301739129	-0.1692371352316654	-0.15954211756983946	-2.401184291837993	-0.17009994294850608	-0.2006355888305934	-2.5542537406991452	-0.16878308987843196	-0.17038504319757025	-2.3374273900134277	0.9223459540044815	-0.13356153529303263	-2.2864636626586274	1.1317307614631356	-0.13076175548149271	-2.1965078865045635	0.9974308901614172	-0.1128979423674458	-2.394826005521225	0.8516209368191519	-0.004070259248504002	-2.488297328416201	0.660907151658153	0.05841374937757893	-2.539040866666476	0.49713425092558217	0.13297629945088765	-2.3269090221179973	0.8239512767270346	-0.2506366554592741	-2.2049635882598184	0.6306371051064747	-0.30412327142800855	-2.047135562504589	0.49381232879472653	-0.3281330144271336
629	21.689655172413794	-2.2995053135444143	0.45675843237878655	-0.09485203208522905	-2.3166007665401684	0.4621128939648602	-0.025161326343000414	-2.1735980620727635	0.18693674078352698	-0.014050681435204703	-2.1071954700046014	-0.10040257284048582	-0.01652632647777091	-1.9603940793774781	-0.14481370403975258	-0.016853911126713125	-1.97414488016282	-0.15222381688631872	0.01922932108058049	-2.1450615093713696	-0.15824094837769132	-0.023267223149459126	-2.309470626718465	0.4545481040249219	-0.165819853588582	-2.366709380116735	0.16101315755899923	-0.16996556773460847	-2.480076281615484	-0.1122323797871366	-0.17271962050466708	-2.383012612271167	-0.17026641718254537	-0.16470279718668168	-2.423163259202893	-0.17696930019408005	-0.20637972530835577	-2.529139997532604	-0.17379598140883076	-0.17170169857486825	-2.294720871556385	0.9138219317382889	-0.1259348172989118	-2.2438727492999946	1.1226232366732736	-0.12321689177298369	-2.165246264379064	0.9905026443351933	-0.10533822484785695	-2.3643304235641383	0.8433952210311652	-0.002464288293329861	-2.470864699526284	0.655060494868109	0.05375421498382703	-2.5223419333199395	0.4841868284547515	0.12916206091125837	-2.2727575975063647	0.819121136514221	-0.24024220629225793	-2.156724104362092	0.6335147731304567	-0.2960486992578294	-1.9749953581175956	0.4959919587813386	-0.3080756682857644
630	21.724137931034484	-2.2600526104730205	0.44744477467873983	-0.0919843130810639	-2.2649757562810255	0.4498296220861864	-0.02221173842481433	-2.139862752554097	0.17700260345930469	-0.02288190714503594	-2.0408339156859046	-0.10141655055633463	-0.008821992385413986	-1.880672982267023	-0.13884052088584697	-0.007971183186605403	-1.8990600401256148	-0.14471524468922076	0.02659290148322501	-2.0729404383730623	-0.1601077978090247	-0.013868553568979041	-2.2646534584572344	0.4453842859064614	-0.16511935328749902	-2.3392968002889045	0.1620848589607158	-0.1711107016635702	-2.4779677584137203	-0.11017760144471801	-0.17413509762684165	-2.3976287181505658	-0.17697426487838347	-0.16759614257576494	-2.4201242232944398	-0.18177261856229995	-0.20783704250927576	-2.533696018250768	-0.17164727768985774	-0.1749309495507747	-2.249738920555687	0.9027554232542544	-0.11791139219066847	-2.2160332834476306	1.1161414154294198	-0.12035135473471943	-2.126076727281571	0.9827737746103793	-0.0954745149468963	-2.3179550673371128	0.8340866800990933	0.0025287545213250103	-2.4361007707661204	0.6467805192516257	0.05573089570307945	-2.4808325805042157	0.4843996247059292	0.12933280826082683	-2.223276273718261	0.812983726091425	-0.23092711406583147	-2.113419728292912	0.6336855925628784	-0.2889801754072828	-1.927900878608177	0.5026595498187219	-0.29598085563305754
631	21.75862068965517	-2.205618126796959	0.44573848627186796	-0.0881992267634587	-2.216479238598113	0.44610688411985916	-0.02028003614072235	-2.109456609941246	0.1716337368060147	-0.022362760127194223	-2.000522036767376	-0.10275401445321469	-0.005371243375882097	-1.8619729351462375	-0.14369626365883748	-0.007369918768088344	-1.865286686595954	-0.14961271232558565	0.028374896074122594	-2.021551326355548	-0.15786568421147082	-0.01064505266701642	-2.215680531760304	0.4399805379325655	-0.1592383426231193	-2.30106702801557	0.16382393377434065	-0.16871447939670617	-2.463033513122922	-0.09670541725923773	-0.17534372287544356	-2.4072158734987394	-0.1772433607400866	-0.1687665736827247	-2.423505073371942	-0.1809614834613935	-0.2072758751545345	-2.506398057453695	-0.15219995855580667	-0.17604761431771954	-2.212473661740347	0.9000478880589827	-0.11211883791626051	-2.1677371103071876	1.1103622051192918	-0.10756704085070272	-2.0789305553862234	0.977213652370253	-0.08647426107380898	-2.274534407546517	0.8294161821153146	0.010022645757902135	-2.391980581499753	0.6437772197984627	0.05593224096698511	-2.442954589823287	0.4748453205650731	0.12801323398866624	-2.1969799341888323	0.805995713272382	-0.22858000965564365	-2.071848119035291	0.6271318251612212	-0.28135066884359244	-1.892789537564022	0.5021008388908431	-0.29053573503416014
632	21.79310344827586	-2.1509645184126196	0.4434087724132598	-0.08058807643532394	-2.165346306425258	0.4451561622500062	-0.015313057472576837	-2.074468729649322	0.1669602274410615	-0.02289156114464586	-1.987312886675377	-0.10943399194807794	-0.009241661157027719	-1.841631521374793	-0.1543409703481024	-0.00339754403370072	-1.846867736325346	-0.15745707274821397	0.029636249987119435	-2.0134453548290967	-0.16243522914087893	-0.01610372006357832	-2.151657024774637	0.43951380344932406	-0.15068718194082345	-2.2534328448978007	0.16502571296973143	-0.16513687976920347	-2.446829428220614	-0.08105471404725065	-0.1766350090054425	-2.3901228560359082	-0.17639287058588626	-0.1701327294627058	-2.4110908362356334	-0.17234029522024535	-0.20766440419659976	-2.4839325063101154	-0.12572784653780086	-0.17952895366640984	-2.1738311695751915	0.9014502306076417	-0.106288462221311	-2.123611611959305	1.1105907813069005	-0.10025193792751286	-2.035523493114052	0.975941979332074	-0.07942393747710741	-2.237003103753522	0.8250073320088854	0.01634633361333119	-2.3514760258632266	0.64197448317337	0.057858556857468164	-2.4069375583014345	0.47037650436912753	0.1277239724692209	-2.1465327203058884	0.8046220581337631	-0.2189660789044888	-2.0340586100799545	0.6254618776644454	-0.275210535593677	-1.8635856177138779	0.4914592065240482	-0.2858034684583398
633	21.82758620689655	-2.091353565816858	0.44787645888707545	-0.07374937546971137	-2.106840617322828	0.4495705731680018	-0.008016220535267432	-2.0463003510507574	0.16341943031709258	-0.02284579684434365	-1.9865076314169487	-0.11739424575230366	-0.0164885671443958	-1.8267424270945263	-0.15680342903918332	-0.0018890517238007302	-1.8504426891091466	-0.16087670353558714	0.027901828874176075	-2.023866874377917	-0.17065980129038238	-0.02338836258699626	-2.0907966971161955	0.4455599179047293	-0.14073760061014254	-2.1790195947387394	0.16608985482081298	-0.15525137723908686	-2.4152487465367516	-0.05816168246316097	-0.17493588903429066	-2.377218816561699	-0.17291683483982373	-0.17360549693354718	-2.393875776766052	-0.16473792093497147	-0.2088496994219547	-2.4838689108092797	-0.09300429675966256	-0.17646927763234352	-2.1316373101074357	0.9026377303721104	-0.09715651269038832	-2.076684080224779	1.1073443121619053	-0.09290927924845883	-2.000298133706921	0.9746828605599211	-0.07179827410542701	-2.191491626640951	0.825845977596399	0.0212969509146604	-2.3129023535049265	0.6383902007750046	0.05833262424511848	-2.363182609703312	0.4630760515830457	0.12294298296939657	-2.1006651988776226	0.8101668523926687	-0.21141163716652864	-2.0101237953008613	0.6276347957195129	-0.2715512752706222	-1.8486513787032766	0.4805714260861999	-0.2861717412956443
634	21.862068965517242	-2.05958634016946	0.44831612127406695	-0.07082273391242984	-2.0693315487737065	0.44849972174776925	-0.003077498107104898	-2.0254315764666897	0.16208749266200936	-0.022871273306087944	-1.9709717576584234	-0.11437636061514753	-0.02158477307437041	-1.825397671170954	-0.1592145473175823	-0.004403126816774427	-1.854573306646146	-0.1622210562268263	0.027647640936280513	-2.008582437174312	-0.16494291582473075	-0.03209697940474162	-2.0590840682862446	0.44599041628785413	-0.13815857117523297	-2.08581515341761	0.1710349236268258	-0.14050773593524546	-2.365689506527159	-0.02988732864504161	-0.16355078472619394	-2.351331372362458	-0.16020237693364942	-0.1656721822764206	-2.3744659202270118	-0.14877671346844554	-0.19933032752596902	-2.433994737281778	-0.06055845478362449	-0.16503375813435622	-2.0885195713004974	0.9048117878188192	-0.09085733529496448	-2.0450452235732652	1.1161519105613382	-0.08670939397158504	-1.9577983827957484	0.9819695808624241	-0.06213571596143201	-2.1477733826131167	0.8260311660388271	0.028038854130173856	-2.238734224148072	0.6352860366024947	0.0659625968716931	-2.288182371917137	0.45832951830280605	0.12686291639765068	-2.0580952744164738	0.8136936161053818	-0.20561741860979343	-1.9838357346406585	0.6281189794355501	-0.2680521779506291	-1.842146246905077	0.47719886624085944	-0.2865662536764643
